<?xml version="1.0" encoding="utf-8"?>
<!-- Generator: Adobe Illustrator 23.0.3, SVG Export Plug-In . SVG Version: 6.00 Build 0)  -->
<svg version="1.1" xmlns="http://www.w3.org/2000/svg" xmlns:xlink="http://www.w3.org/1999/xlink" x="0px" y="0px"
	 viewBox="0 0 2000 2000" style="enable-background:new 0 0 2000 2000;" xml:space="preserve">
<style type="text/css">
	.st0{fill:#1A3E6E;}
	.st1{fill:#FFFFFF;}
	.st2{fill:#B78046;stroke:#10345B;stroke-width:3;stroke-linecap:round;stroke-miterlimit:10;}
</style>
<g id="Layer_1">
	<rect class="st0" width="2000" height="2000"/>
	<g>
		<path class="st1" d="M1002,1999.5c-134.93,0-265.83-26.43-389.05-78.55c-119.02-50.34-225.91-122.41-317.7-214.2
			c-91.79-91.79-163.86-198.68-214.2-317.7C28.93,1265.83,2.5,1134.93,2.5,1000s26.43-265.83,78.55-389.05
			c50.34-119.02,122.41-225.91,214.2-317.7s198.68-163.86,317.7-214.2C736.17,26.93,867.07,0.5,1002,0.5s265.83,26.43,389.05,78.55
			c119.02,50.34,225.91,122.41,317.7,214.2c91.79,91.79,163.86,198.68,214.2,317.7c52.12,123.22,78.55,254.12,78.55,389.05
			c0,134.93-26.43,265.83-78.55,389.05c-50.34,119.02-122.41,225.91-214.2,317.7c-91.79,91.79-198.68,163.86-317.7,214.2
			C1267.83,1973.07,1136.93,1999.5,1002,1999.5z"/>
		<path d="M1002,1c67.78,0,135.52,6.83,201.33,20.3c64.14,13.13,127.23,32.71,187.52,58.21c59.19,25.04,116.29,56.03,169.69,92.11
			c52.9,35.74,102.64,76.78,147.85,121.99c45.21,45.21,86.25,94.95,121.99,147.85c36.08,53.41,67.07,110.5,92.11,169.69
			c25.5,60.29,45.08,123.38,58.21,187.52c13.47,65.81,20.3,133.55,20.3,201.33s-6.83,135.52-20.3,201.33
			c-13.13,64.14-32.71,127.23-58.21,187.52c-25.04,59.19-56.03,116.29-92.11,169.69c-35.74,52.9-76.78,102.64-121.99,147.85
			c-45.21,45.21-94.95,86.25-147.85,121.99c-53.41,36.08-110.5,67.07-169.69,92.11c-60.29,25.5-123.38,45.08-187.52,58.21
			c-65.81,13.47-133.55,20.3-201.33,20.3s-135.52-6.83-201.33-20.3c-64.14-13.13-127.23-32.71-187.52-58.21
			c-59.19-25.04-116.29-56.03-169.69-92.11c-52.9-35.74-102.64-76.78-147.85-121.99c-45.21-45.21-86.25-94.95-121.99-147.85
			c-36.08-53.41-67.07-110.5-92.11-169.69c-25.5-60.29-45.08-123.38-58.21-187.52C9.83,1135.52,3,1067.78,3,1000
			s6.83-135.52,20.3-201.33c13.13-64.14,32.71-127.23,58.21-187.52c25.04-59.19,56.03-116.29,92.11-169.69
			c35.74-52.9,76.78-102.64,121.99-147.85s94.95-86.25,147.85-121.99c53.41-36.08,110.5-67.07,169.69-92.11
			c60.29-25.5,123.38-45.08,187.52-58.21C866.48,7.83,934.22,1,1002,1 M1002,0C449.72,0,2,447.72,2,1000s447.72,1000,1000,1000
			s1000-447.72,1000-1000S1554.28,0,1002,0L1002,0z"/>
	</g>
	<path class="st0" d="M478,1946h554h58l-227-241l-2.5-567.5c0,0,553,59,757-121c0,0,248-168,120-561c0,0-54-151-163-238l-119-92
		c0,0,223,111,311,331c0,0,113,257-51,508c0,0-108,193-496,207c0,0-133,10-319,5l-4,497v14l267,288l7.5,7.5l-692.5-0.5L478,1946z"/>
	<path class="st0" d="M451.5,144.5l-55,32l127,130v659c0,0-337-63-466,562c0,0,108-526,466-449v64c0,0-289-93-448,419
		c0,0,137-425,448-385v539l-181,154h608l-156-148v-649c0,0,417,9,569-35c0,0,235-51,295-245c0,0,142-294-134-521
		c0,0-113-119-466-127H451.5z"/>
	<g>
		<path class="st1" d="M838.78,960.39c-17.87,0-41.61-0.75-45.28-0.87V285.46c60.48-5.57,116.96-8.39,167.87-8.39
			c99.42,0,161.51,10.83,196.09,19.92c37.47,9.85,51.61,19.82,51.75,19.92c88.61,40.06,147.85,99.21,176.15,175.87
			c27.05,73.27,20.36,149.44,9.99,200.43c-11.24,55.27-29.12,93.7-29.3,94.08c-35.44,63.72-101.18,109.92-195.38,137.27
			c-78.4,22.76-159.86,27.54-214.39,27.54c0,0,0,0-0.01,0c-32.75,0-54.87-1.76-58.27-2.05V391.96c43.12-4.08,84.24-6.15,122.23-6.15
			c110.48,0,197.89,17,259.8,50.54c49.66,26.9,68.06,57.01,73.66,68.7l0.91-0.41c-32.21-74.72-95.24-110.07-142.45-126.57
			c-51.12-17.86-95.22-18.07-95.66-18.07c-64.61-6.25-164.1-7.19-217.65-7.19c-24,0-39.7,0.19-39.85,0.19l-0.5,0.01l0.01,0.5
			c2.39,206.16,5.5,597.42,0.26,606.04C856.62,960.11,849.9,960.39,838.78,960.39z"/>
		<path d="M961.37,277.56c99.28,0,161.3,10.81,195.85,19.88c37.43,9.82,51.56,19.77,51.7,19.87l0.08,0.06l0.09,0.04
			c88.4,39.95,147.54,99.01,175.8,175.53c11.92,32.29,18.33,67.84,19.05,105.66c0.57,30.27-2.48,62.06-9.07,94.47
			c-11.1,54.57-28.67,92.71-29.25,93.97c-35.39,63.62-101.03,109.72-195.08,137.03c-78.35,22.75-159.76,27.52-214.26,27.52
			c-31.51,0-53.17-1.63-57.77-2.01V392.41c42.94-4.05,83.89-6.1,121.73-6.1c59.91,0,113.73,5.12,159.97,15.22
			c38.35,8.37,71.86,20.24,99.59,35.26c49.53,26.83,67.86,56.83,73.43,68.44c0.8,1.86,1.59,3.75,2.34,5.64l1.89-0.66
			c-0.03-0.09-0.67-2.18-2.39-5.77c-32.28-74.89-95.44-110.31-142.74-126.84c-50.42-17.62-94.03-18.09-95.77-18.1
			c-64.68-6.26-164.16-7.19-217.7-7.19c-24,0-39.7,0.19-39.86,0.19l-1,0.01l0.01,1c0.02,1.49,1.73,150.23,2.6,298.57
			c1.5,255.74-0.69,302.68-2.21,307.04c-1.71,0.37-6.57,0.77-19.61,0.77c-17.21,0-39.86-0.7-44.78-0.86V285.91
			C854.29,280.37,910.6,277.56,961.37,277.56 M961.37,276.56c-47.41,0-103.11,2.42-168.37,8.44v675c0,0,26.22,0.89,45.78,0.89
			c9.78,0,17.89-0.22,20.22-0.89c7-2,0-606.5,0-606.5s15.58-0.19,39.85-0.19c54.61,0,153.27,0.96,217.65,7.19
			c0,0,175.44,0,237.65,144.33c1.73,3.6,2.35,5.67,2.35,5.67c-0.77-1.91-1.55-3.8-2.35-5.67
			c-11.71-24.43-73.98-119.53-333.92-119.53c-36.81,0-77.58,1.91-122.73,6.19v559c0,0,22.85,2.09,58.77,2.09
			c106.68,0,328.69-18.46,410.23-165.09c0,0,155-330-157-471C1209.5,316.5,1154.08,276.56,961.37,276.56L961.37,276.56z"/>
	</g>
	<g>
		<path class="st0" d="M989.91,1208.36v101.08c0,2.54,1.62,4.43,4.86,5.67c0.16,0.05,0.32,0.11,0.49,0.16
			c2.05,0.7,3.44,1.47,4.17,2.31c0.73,0.84,1.09,1.96,1.09,3.36c0,1.68-0.6,2.87-1.78,3.57c-1.19,0.7-3.4,1.05-6.65,1.05h-43.2
			c-2.54,0-4.34-0.37-5.39-1.09c-1.05-0.73-1.58-1.96-1.58-3.69c0-2.32,1.4-4.11,4.21-5.35c0.65-0.27,1.13-0.49,1.46-0.65
			c1.24-0.65,2.08-1.39,2.51-2.23c0.43-0.84,0.65-2.52,0.65-5.07v-1.38v-79.68c0-2.54-0.22-4.23-0.65-5.07
			c-0.43-0.84-1.27-1.58-2.51-2.23c-0.32-0.16-0.81-0.38-1.46-0.65c-2.81-1.24-4.21-3-4.21-5.27c0-1.78,0.53-3.04,1.58-3.77
			c1.05-0.73,2.85-1.09,5.39-1.09H989.91z M1005.39,1233.08c0-4.97-0.82-8.6-2.47-10.9s-4.31-3.58-7.98-3.85v-9.97h3.49
			c14.75,0,25.94,3.07,33.56,9.2c7.62,6.13,11.43,15.15,11.43,27.03c0,11.83-3.8,20.79-11.39,26.87c-7.59,6.08-18.79,9.12-33.6,9.12
			h-3.49v-9.97c3.73-0.27,6.4-1.54,8.02-3.81s2.43-5.86,2.43-10.78V1233.08z"/>
		<path class="st0" d="M1103.63,1325.57h-42.88c-2.54,0-4.34-0.37-5.39-1.09c-1.05-0.73-1.58-1.96-1.58-3.69
			c0-2.32,1.4-4.11,4.21-5.35c0.65-0.27,1.13-0.49,1.46-0.65c1.24-0.65,2.08-1.39,2.51-2.23c0.43-0.84,0.65-2.52,0.65-5.07v-1.38
			v-79.68c0-2.54-0.22-4.23-0.65-5.07c-0.43-0.84-1.27-1.58-2.51-2.23c-0.32-0.16-0.81-0.38-1.46-0.65c-2.81-1.24-4.21-3-4.21-5.27
			c0-1.78,0.53-3.04,1.58-3.77c1.05-0.73,2.85-1.09,5.39-1.09h41.01v100.43c0,1.73,0.21,2.99,0.65,3.77
			c0.43,0.78,1.27,1.53,2.51,2.23c0.32,0.16,0.81,0.38,1.46,0.65c2.81,1.24,4.21,3.03,4.21,5.35c0,1.73-0.53,2.96-1.58,3.69
			C1107.96,1325.2,1106.17,1325.57,1103.63,1325.57z M1106.79,1262.99c3.67-0.27,6.33-1.55,7.98-3.85s2.47-5.93,2.47-10.9v-15.16
			c0-4.97-0.82-8.6-2.47-10.9s-4.31-3.58-7.98-3.85v-9.97c0.76-0.05,1.55-0.09,2.39-0.12c0.84-0.03,2.07-0.04,3.69-0.04
			c14.48,0,25.17,2.45,32.06,7.34c6.89,4.89,10.33,12.47,10.33,22.74c0,8.27-2.38,14.75-7.13,19.45c-4.76,4.7-11.97,7.73-21.64,9.08
			c9.78,0.92,17.07,3.24,21.88,6.97c4.81,3.73,7.21,8.94,7.21,15.64v14.91c0,1.08,0.13,1.88,0.41,2.39
			c0.27,0.51,0.67,0.77,1.22,0.77c0.54,0,1.45-0.78,2.72-2.35c1.27-1.57,2.58-2.35,3.93-2.35c1.35,0,2.58,0.54,3.69,1.62
			c1.11,1.08,1.66,2.32,1.66,3.73c0,4.38-2.53,8.57-7.58,12.56c-5.05,4-11.17,6-18.36,6c-8.65,0-15.04-2.34-19.17-7.01
			c-4.13-4.67-6.2-11.9-6.2-21.68v-10.13c0-4.7-0.85-8.2-2.55-10.5c-1.7-2.3-4.55-3.77-8.55-4.42V1262.99z"/>
		<path class="st0" d="M1217.19,1302.3c0,5.89,0.58,9.86,1.74,11.92c1.16,2.05,3.28,3.24,6.36,3.57v9.97
			c-15.72-1.19-27.98-7.13-36.76-17.83c-8.78-10.7-13.17-25.02-13.17-42.96c0-17.94,4.39-32.23,13.17-42.88
			c8.78-10.64,21.03-16.62,36.76-17.91v9.97c-3.08,0.32-5.2,1.51-6.36,3.57c-1.16,2.05-1.74,6.03-1.74,11.92V1302.3z
			 M1238.26,1302.3v-70.68c0-6-0.57-10-1.7-12c-1.13-2-3.22-3.16-6.24-3.49v-9.97c15.78,1.3,28.04,7.27,36.8,17.91
			c8.75,10.65,13.13,24.94,13.13,42.88c0,17.94-4.38,32.23-13.13,42.88c-8.75,10.65-21.02,16.62-36.8,17.91v-9.97
			c3.03-0.32,5.11-1.49,6.24-3.49C1237.69,1312.3,1238.26,1308.3,1238.26,1302.3z"/>
		<path class="st0" d="M1340.55,1317.79v9.97c-15.46-1.51-27.45-7.58-35.99-18.2c-8.54-10.62-12.81-24.82-12.81-42.59
			c0-17.72,4.24-31.87,12.73-42.43c8.48-10.56,20.51-16.68,36.07-18.36v9.97c-2.97,0.49-5.01,1.76-6.12,3.81
			c-1.11,2.05-1.66,5.95-1.66,11.67v70.68c0,5.73,0.55,9.63,1.66,11.71C1335.54,1316.1,1337.58,1317.35,1340.55,1317.79z
			 M1345.5,1327.67v-10.38c2.54-0.21,4.31-1.01,5.31-2.39c1-1.38,1.5-3.74,1.5-7.09v-25.37c0-2.11-0.2-3.49-0.61-4.13
			c-0.4-0.65-1.23-1.27-2.47-1.86c-0.38-0.16-0.87-0.35-1.46-0.57c-3.03-1.19-4.54-3.05-4.54-5.59c0-1.73,0.53-2.93,1.58-3.61
			c1.05-0.67,2.96-1.01,5.71-1.01h35.83c2.11,0,3.69,0.42,4.74,1.26c1.05,0.84,1.58,2.07,1.58,3.69c0,1.24-0.22,2.23-0.65,2.96
			c-0.43,0.73-1.33,1.47-2.67,2.23c-0.92,0.54-1.54,1.13-1.86,1.78s-0.49,1.81-0.49,3.49v1.38v28.21
			c-6.21,5.46-12.77,9.61-19.66,12.44C1360.45,1325.93,1353.17,1327.46,1345.5,1327.67z M1386.51,1241.59v1.78
			c0,3.19-0.5,5.49-1.5,6.89c-1,1.41-2.66,2.11-4.99,2.11c-3.24,0-5.89-3.03-7.94-9.08c-1.57-4.54-3.11-8.16-4.62-10.86
			c-2.87-5.08-6.17-9-9.93-11.75s-7.77-4.27-12.04-4.54v-9.97c5.08,0.32,10.32,1.46,15.72,3.4c5.4,1.95,8.51,2.92,9.32,2.92
			c1.35,0,2.81-0.99,4.38-2.96c1.57-1.97,3.54-2.96,5.92-2.96c2.05,0,3.51,0.42,4.38,1.26c0.86,0.84,1.3,2.63,1.3,5.39v0.65V1241.59
			z"/>
		<path class="st0" d="M1452.57,1325.57h-42.88c-2.54,0-4.34-0.37-5.39-1.09c-1.05-0.73-1.58-1.96-1.58-3.69
			c0-2.32,1.4-4.11,4.21-5.35c0.65-0.27,1.13-0.49,1.46-0.65c1.24-0.65,2.08-1.39,2.51-2.23c0.43-0.84,0.65-2.52,0.65-5.07v-1.38
			v-79.68c0-2.54-0.22-4.23-0.65-5.07c-0.43-0.84-1.27-1.58-2.51-2.23c-0.32-0.16-0.81-0.38-1.46-0.65c-2.81-1.24-4.21-3-4.21-5.27
			c0-1.78,0.53-3.04,1.58-3.77c1.05-0.73,2.85-1.09,5.39-1.09h41.01v100.43c0,1.73,0.21,2.99,0.65,3.77
			c0.43,0.78,1.27,1.53,2.51,2.23c0.32,0.16,0.81,0.38,1.46,0.65c2.81,1.24,4.21,3.03,4.21,5.35c0,1.73-0.53,2.96-1.58,3.69
			C1456.9,1325.2,1455.11,1325.57,1452.57,1325.57z M1455.73,1262.99c3.67-0.27,6.33-1.55,7.98-3.85s2.47-5.93,2.47-10.9v-15.16
			c0-4.97-0.82-8.6-2.47-10.9s-4.31-3.58-7.98-3.85v-9.97c0.76-0.05,1.55-0.09,2.39-0.12c0.84-0.03,2.07-0.04,3.69-0.04
			c14.48,0,25.17,2.45,32.06,7.34c6.89,4.89,10.33,12.47,10.33,22.74c0,8.27-2.38,14.75-7.13,19.45c-4.76,4.7-11.97,7.73-21.64,9.08
			c9.78,0.92,17.07,3.24,21.88,6.97c4.81,3.73,7.21,8.94,7.21,15.64v14.91c0,1.08,0.13,1.88,0.41,2.39
			c0.27,0.51,0.67,0.77,1.22,0.77c0.54,0,1.45-0.78,2.72-2.35c1.27-1.57,2.58-2.35,3.93-2.35c1.35,0,2.58,0.54,3.69,1.62
			c1.11,1.08,1.66,2.32,1.66,3.73c0,4.38-2.53,8.57-7.58,12.56c-5.05,4-11.17,6-18.36,6c-8.65,0-15.04-2.34-19.17-7.01
			c-4.13-4.67-6.2-11.9-6.2-21.68v-10.13c0-4.7-0.85-8.2-2.55-10.5c-1.7-2.3-4.55-3.77-8.55-4.42V1262.99z"/>
		<path class="st0" d="M1530.06,1325.57c-2.54,0-4.34-0.37-5.39-1.09c-1.05-0.73-1.58-1.96-1.58-3.69c0-2.32,1.4-4.11,4.21-5.35
			c0.65-0.27,1.13-0.49,1.46-0.65c1.24-0.65,2.08-1.39,2.51-2.23c0.43-0.84,0.65-2.52,0.65-5.07v-1.38v-79.68
			c0-2.54-0.22-4.23-0.65-5.07c-0.43-0.84-1.27-1.58-2.51-2.23c-0.32-0.16-0.81-0.38-1.46-0.65c-2.81-1.24-4.21-3-4.21-5.27
			c0-1.78,0.53-3.04,1.58-3.77c1.05-0.73,2.85-1.09,5.39-1.09h41.01v117.21H1530.06z M1576.58,1208.36h35.75v31.21
			c0,1.51-0.42,2.73-1.26,3.65c-0.84,0.92-1.96,1.38-3.37,1.38c-2.55,0-4.66-2.24-6.34-6.73c-1.14-2.92-2.19-5.11-3.17-6.57
			c-2.28-3.51-5.28-6.31-9.02-8.39c-3.74-2.08-7.93-3.33-12.59-3.77V1208.36z M1576.58,1270.61v-10.78c2.43-0.7,4.28-1.58,5.55-2.63
			c1.27-1.05,2.28-2.5,3.04-4.34c0.59-1.35,1.3-3.11,2.11-5.27c1.35-3.78,3.13-5.67,5.35-5.67c1.67,0,2.88,0.65,3.61,1.95
			c0.73,1.3,1.09,3.62,1.09,6.97v29.42c0,3.03-0.36,5.16-1.09,6.4c-0.73,1.24-1.93,1.86-3.61,1.86c-2.27,0-4.08-1.89-5.43-5.67
			c-0.76-2.05-1.43-3.75-2.03-5.11c-0.76-1.89-1.78-3.38-3.08-4.46C1580.8,1272.21,1578.96,1271.32,1576.58,1270.61z
			 M1576.58,1325.57v-10.78c5.25-0.43,9.75-1.69,13.48-3.77s6.77-5.04,9.1-8.88c0.92-1.4,1.81-3.65,2.68-6.73
			c1.46-4.81,3.46-7.21,6.01-7.21c2.11,0,3.57,0.81,4.39,2.43s1.22,4.86,1.22,9.73v25.21H1576.58z"/>
		<path class="st0" d="M1671.82,1327.92v-11.19c4.97-0.32,8.66-1.46,11.06-3.4c2.4-1.95,3.61-4.78,3.61-8.51
			c0-6.21-6.92-12.45-20.75-18.72c-0.49-0.21-0.87-0.38-1.13-0.49c-13.62-6.05-22.84-12.01-27.68-17.89
			c-4.84-5.88-7.25-13.2-7.25-21.94c0-11.61,3.63-21.09,10.9-28.46c7.27-7.37,16.68-11.05,28.25-11.05h1.38v10.21
			c-3.3,0.65-5.95,2.12-7.94,4.42c-2,2.3-3,4.98-3,8.06c0,5.89,7.21,11.7,21.64,17.43c1.03,0.43,1.84,0.76,2.43,0.97
			c11.83,4.81,20.32,10.4,25.45,16.78c5.13,6.38,7.7,14.4,7.7,24.07c0,11.89-4.07,21.48-12.2,28.77
			C1696.15,1324.27,1685.33,1327.92,1671.82,1327.92z M1666.88,1316.98v10.7c-4.65-0.05-9.5-0.87-14.55-2.43s-7.9-2.35-8.55-2.35
			c-1.41,0-2.7,0.81-3.89,2.43c-1.19,1.62-2.59,2.43-4.21,2.43c-1.73,0-3.08-0.61-4.05-1.82c-0.97-1.22-1.46-2.93-1.46-5.15v-30.56
			c0-3.29,0.39-5.56,1.18-6.81c0.78-1.24,2.17-1.86,4.17-1.86c2.7,0,4.7,2.54,6,7.62c0.65,2.49,1.24,4.43,1.78,5.84
			c2.11,5.57,5.24,10.28,9.4,14.14C1656.85,1313.02,1661.58,1315.63,1666.88,1316.98z M1675.14,1216.14v-9.89
			c4.97,0.05,9.9,0.89,14.79,2.51s7.39,2.43,7.5,2.43c1.24,0,2.53-0.82,3.85-2.47s2.8-2.47,4.42-2.47c1.78,0,3.04,0.45,3.77,1.36
			c0.73,0.91,1.09,2.53,1.09,4.88v27.4c0,3.03-0.38,5.08-1.13,6.16c-0.76,1.08-2.05,1.62-3.89,1.62c-2.65,0-4.65-2.32-6-6.97
			c-0.6-2.16-1.13-3.86-1.62-5.11c-2.11-5.24-5.12-9.54-9.04-12.89C1684.96,1219.36,1680.38,1217.17,1675.14,1216.14z"/>
		<path class="st0" d="M1772.41,1327.92v-11.19c4.97-0.32,8.66-1.46,11.06-3.4c2.4-1.95,3.61-4.78,3.61-8.51
			c0-6.21-6.92-12.45-20.75-18.72c-0.49-0.21-0.87-0.38-1.13-0.49c-13.62-6.05-22.84-12.01-27.68-17.89
			c-4.84-5.88-7.25-13.2-7.25-21.94c0-11.61,3.63-21.09,10.9-28.46c7.27-7.37,16.68-11.05,28.25-11.05h1.38v10.21
			c-3.3,0.65-5.95,2.12-7.94,4.42c-2,2.3-3,4.98-3,8.06c0,5.89,7.21,11.7,21.64,17.43c1.03,0.43,1.84,0.76,2.43,0.97
			c11.83,4.81,20.32,10.4,25.45,16.78c5.13,6.38,7.7,14.4,7.7,24.07c0,11.89-4.07,21.48-12.2,28.77
			C1796.74,1324.27,1785.92,1327.92,1772.41,1327.92z M1767.47,1316.98v10.7c-4.65-0.05-9.5-0.87-14.55-2.43s-7.9-2.35-8.55-2.35
			c-1.41,0-2.7,0.81-3.89,2.43c-1.19,1.62-2.59,2.43-4.21,2.43c-1.73,0-3.08-0.61-4.05-1.82c-0.97-1.22-1.46-2.93-1.46-5.15v-30.56
			c0-3.29,0.39-5.56,1.18-6.81c0.78-1.24,2.17-1.86,4.17-1.86c2.7,0,4.7,2.54,6,7.62c0.65,2.49,1.24,4.43,1.78,5.84
			c2.11,5.57,5.24,10.28,9.4,14.14C1757.44,1313.02,1762.17,1315.63,1767.47,1316.98z M1775.73,1216.14v-9.89
			c4.97,0.05,9.9,0.89,14.79,2.51s7.39,2.43,7.5,2.43c1.24,0,2.53-0.82,3.85-2.47s2.8-2.47,4.42-2.47c1.78,0,3.04,0.45,3.77,1.36
			c0.73,0.91,1.09,2.53,1.09,4.88v27.4c0,3.03-0.38,5.08-1.13,6.16c-0.76,1.08-2.05,1.62-3.89,1.62c-2.65,0-4.65-2.32-6-6.97
			c-0.6-2.16-1.13-3.86-1.62-5.11c-2.11-5.24-5.12-9.54-9.04-12.89C1785.55,1219.36,1780.97,1217.17,1775.73,1216.14z"/>
	</g>
	<g>
		<path class="st2" d="M989.07,1338.36v96.2c0,2.42,1.64,4.22,4.91,5.4c0.16,0.05,0.33,0.1,0.49,0.15c2.07,0.67,3.48,1.4,4.21,2.2
			c0.74,0.8,1.1,1.87,1.1,3.2c0,1.59-0.6,2.73-1.8,3.39c-1.2,0.67-3.44,1-6.71,1h-43.62c-2.57,0-4.38-0.35-5.44-1.04
			c-1.06-0.7-1.6-1.86-1.6-3.51c0-2.21,1.42-3.91,4.26-5.09c0.65-0.26,1.15-0.46,1.47-0.62c1.25-0.62,2.1-1.32,2.54-2.12
			c0.44-0.8,0.65-2.4,0.65-4.82v-1.31v-75.84c0-2.42-0.22-4.02-0.65-4.82c-0.44-0.8-1.28-1.5-2.54-2.12
			c-0.33-0.15-0.82-0.36-1.47-0.62c-2.84-1.18-4.26-2.85-4.26-5.01c0-1.7,0.53-2.89,1.6-3.59c1.06-0.69,2.88-1.04,5.44-1.04H989.07z
			 M1004.7,1361.89c0-4.73-0.83-8.19-2.5-10.38c-1.67-2.19-4.35-3.41-8.06-3.67v-9.49h3.52c14.9,0,26.19,2.92,33.88,8.76
			c7.69,5.84,11.54,14.42,11.54,25.73c0,11.26-3.83,19.79-11.5,25.58c-7.67,5.79-18.97,8.68-33.92,8.68h-3.52v-9.49
			c3.76-0.26,6.47-1.47,8.1-3.63c1.64-2.16,2.46-5.58,2.46-10.26V1361.89z"/>
		<path class="st2" d="M1110.43,1338.36c2.56,0,4.41,0.36,5.52,1.08c1.12,0.72,1.68,1.9,1.68,3.55c0,2.16-1.42,3.81-4.25,4.94
			c-0.76,0.31-1.31,0.54-1.64,0.69c-1.26,0.62-2.1,1.33-2.54,2.12c-0.44,0.8-0.66,2.4-0.66,4.82v1.31v76.15
			c0,2.11,0.16,3.52,0.49,4.24c0.33,0.72,0.93,1.34,1.8,1.85c0.44,0.26,1.12,0.57,2.05,0.93c3.16,1.29,4.75,3.06,4.75,5.32
			c0,1.59-0.56,2.75-1.68,3.47c-1.12,0.72-2.96,1.08-5.52,1.08h-43.29c-2.57,0-4.38-0.35-5.44-1.04c-1.06-0.7-1.6-1.86-1.6-3.51
			c0-2.21,1.42-3.91,4.26-5.09c0.65-0.26,1.15-0.46,1.47-0.62c1.25-0.62,2.1-1.32,2.54-2.12c0.44-0.8,0.65-2.4,0.65-4.82v-1.31
			v-75.84c0-2.42-0.22-4.02-0.65-4.82c-0.44-0.8-1.28-1.5-2.54-2.12c-0.33-0.15-0.82-0.36-1.47-0.62c-2.84-1.18-4.26-2.85-4.26-5.01
			c0-1.7,0.53-2.89,1.6-3.59c1.06-0.69,2.88-1.04,5.44-1.04H1110.43z"/>
		<path class="st2" d="M1176.79,1427.78c0,5.61,0.59,9.39,1.76,11.34c1.17,1.96,3.31,3.09,6.42,3.39v9.49
			c-15.88-1.13-28.25-6.79-37.11-16.97c-8.87-10.18-13.3-23.81-13.3-40.89c0-17.08,4.43-30.68,13.3-40.81
			c8.87-10.13,21.24-15.82,37.11-17.05v9.49c-3.11,0.31-5.25,1.44-6.42,3.39c-1.17,1.96-1.76,5.74-1.76,11.34V1427.78z
			 M1198.07,1427.78v-67.27c0-5.71-0.57-9.51-1.72-11.42c-1.15-1.9-3.25-3.01-6.3-3.32v-9.49c15.93,1.23,28.32,6.92,37.16,17.05
			c8.84,10.13,13.26,23.74,13.26,40.81c0,17.08-4.42,30.68-13.26,40.81c-8.84,10.13-21.22,15.82-37.16,17.05v-9.49
			c3.06-0.31,5.16-1.41,6.3-3.32C1197.49,1437.29,1198.07,1433.49,1198.07,1427.78z"/>
		<path class="st2" d="M1350.93,1449.92h-24.47l-59.99-97.52c-1.53-2.47-3.98-4.19-7.37-5.17c-3.38-0.98-5.07-2.52-5.07-4.63
			c0-1.49,0.49-2.57,1.47-3.24c0.98-0.67,2.62-1,4.91-1h44.93l45.58,74.29V1449.92z M1267.78,1363.2l9.58,15.43V1424
			c0,2.93,0.33,5.4,0.98,7.41c0.66,2.01,1.66,3.65,3.03,4.94c1.04,0.98,2.92,2.17,5.65,3.59c2.73,1.42,4.09,3.05,4.09,4.9
			c0,1.75-0.56,3.04-1.68,3.86c-1.12,0.82-2.91,1.23-5.36,1.23h-23c-2.4,0-4.17-0.41-5.32-1.23c-1.15-0.82-1.72-2.11-1.72-3.86
			c0-1.85,1.39-3.48,4.17-4.9c2.78-1.41,4.69-2.61,5.73-3.59c1.42-1.34,2.41-2.98,2.99-4.94c0.57-1.95,0.86-5.58,0.86-10.88V1363.2z
			 M1350.93,1403.78l-9.58-15.51v-20.52c0-4.99-0.3-8.52-0.9-10.61c-0.6-2.08-1.64-3.82-3.11-5.21c-1.04-0.98-2.92-2.17-5.65-3.59
			c-2.73-1.41-4.09-3.05-4.09-4.9c0-1.8,0.54-3.1,1.64-3.9c1.09-0.8,2.84-1.2,5.24-1.2h23.16c2.46,0,4.24,0.41,5.36,1.23
			c1.12,0.82,1.68,2.11,1.68,3.86c0,1.85-1.39,3.49-4.17,4.9c-2.78,1.42-4.69,2.61-5.73,3.59c-1.37,1.34-2.35,2.98-2.95,4.94
			c-0.6,1.96-0.9,5.58-0.9,10.88V1403.78z"/>
		<path class="st2" d="M1384.23,1449.92c-2.57,0-4.38-0.35-5.44-1.04c-1.06-0.7-1.6-1.86-1.6-3.51c0-2.21,1.42-3.91,4.26-5.09
			c0.65-0.26,1.15-0.46,1.47-0.62c1.25-0.62,2.1-1.32,2.54-2.12c0.44-0.8,0.65-2.4,0.65-4.82v-1.31v-75.84
			c0-2.42-0.22-4.02-0.65-4.82c-0.44-0.8-1.28-1.5-2.54-2.12c-0.33-0.15-0.82-0.36-1.47-0.62c-2.84-1.18-4.26-2.85-4.26-5.01
			c0-1.7,0.53-2.89,1.6-3.59c1.06-0.69,2.88-1.04,5.44-1.04h41.41v111.56H1384.23z M1431.21,1338.36h36.09v29.7
			c0,1.44-0.42,2.6-1.27,3.47c-0.85,0.88-1.98,1.31-3.4,1.31c-2.57,0-4.7-2.13-6.4-6.4c-1.15-2.78-2.21-4.86-3.2-6.25
			c-2.3-3.34-5.33-6-9.1-7.99c-3.77-1.98-8.01-3.17-12.71-3.59V1338.36z M1431.21,1397.61v-10.26c2.46-0.67,4.32-1.5,5.61-2.51
			c1.28-1,2.3-2.38,3.07-4.13c0.6-1.29,1.31-2.96,2.13-5.01c1.36-3.6,3.16-5.4,5.4-5.4c1.69,0,2.91,0.62,3.64,1.85
			s1.11,3.45,1.11,6.63v28c0,2.88-0.37,4.91-1.11,6.09c-0.74,1.18-1.95,1.77-3.64,1.77c-2.29,0-4.12-1.8-5.48-5.4
			c-0.76-1.95-1.45-3.57-2.05-4.86c-0.76-1.8-1.8-3.21-3.11-4.24C1435.46,1399.13,1433.61,1398.28,1431.21,1397.61z
			 M1431.21,1449.92v-10.26c5.3-0.41,9.84-1.61,13.61-3.59c3.77-1.98,6.83-4.8,9.19-8.45c0.93-1.34,1.83-3.47,2.71-6.4
			c1.48-4.58,3.5-6.87,6.07-6.87c2.13,0,3.61,0.77,4.43,2.31c0.82,1.54,1.23,4.63,1.23,9.26v23.99H1431.21z"/>
		<path class="st2" d="M1495.52,1449.92c-2.57,0-4.38-0.35-5.44-1.04c-1.06-0.7-1.6-1.86-1.6-3.51c0-2.21,1.42-3.91,4.26-5.09
			c0.65-0.26,1.15-0.46,1.47-0.62c1.25-0.62,2.1-1.32,2.54-2.12c0.44-0.8,0.65-2.4,0.65-4.82v-1.31v-75.84
			c0-2.42-0.22-4.02-0.65-4.82c-0.44-0.8-1.28-1.5-2.54-2.12c-0.33-0.15-0.82-0.36-1.47-0.62c-2.84-1.18-4.26-2.85-4.26-5.01
			c0-1.7,0.53-2.89,1.6-3.59c1.06-0.69,2.88-1.04,5.44-1.04h41.41v111.56H1495.52z M1542.5,1338.36h36.09v29.7
			c0,1.44-0.42,2.6-1.27,3.47c-0.85,0.88-1.98,1.31-3.4,1.31c-2.57,0-4.7-2.13-6.4-6.4c-1.15-2.78-2.21-4.86-3.2-6.25
			c-2.3-3.34-5.33-6-9.1-7.99c-3.77-1.98-8.01-3.17-12.71-3.59V1338.36z M1542.5,1397.61v-10.26c2.46-0.67,4.32-1.5,5.61-2.51
			c1.28-1,2.3-2.38,3.07-4.13c0.6-1.29,1.31-2.96,2.13-5.01c1.36-3.6,3.16-5.4,5.4-5.4c1.69,0,2.91,0.62,3.64,1.85
			s1.11,3.45,1.11,6.63v28c0,2.88-0.37,4.91-1.11,6.09c-0.74,1.18-1.95,1.77-3.64,1.77c-2.29,0-4.12-1.8-5.48-5.4
			c-0.76-1.95-1.45-3.57-2.05-4.86c-0.76-1.8-1.8-3.21-3.11-4.24C1546.75,1399.13,1544.9,1398.28,1542.5,1397.61z M1542.5,1449.92
			v-10.26c5.3-0.41,9.84-1.61,13.61-3.59c3.77-1.98,6.83-4.8,9.19-8.45c0.93-1.34,1.83-3.47,2.71-6.4c1.48-4.58,3.5-6.87,6.07-6.87
			c2.13,0,3.61,0.77,4.43,2.31c0.82,1.54,1.23,4.63,1.23,9.26v23.99H1542.5z"/>
		<path class="st2" d="M1650.1,1449.92h-43.29c-2.57,0-4.38-0.35-5.44-1.04c-1.06-0.7-1.6-1.86-1.6-3.51c0-2.21,1.42-3.91,4.26-5.09
			c0.65-0.26,1.15-0.46,1.47-0.62c1.25-0.62,2.1-1.32,2.54-2.12c0.44-0.8,0.65-2.4,0.65-4.82v-1.31v-75.84
			c0-2.42-0.22-4.02-0.65-4.82c-0.44-0.8-1.28-1.5-2.54-2.12c-0.33-0.15-0.82-0.36-1.47-0.62c-2.84-1.18-4.26-2.85-4.26-5.01
			c0-1.7,0.53-2.89,1.6-3.59c1.06-0.69,2.88-1.04,5.44-1.04h41.41v95.59c0,1.65,0.22,2.84,0.66,3.59c0.44,0.75,1.28,1.45,2.54,2.12
			c0.33,0.15,0.82,0.36,1.47,0.62c2.84,1.18,4.26,2.88,4.26,5.09c0,1.65-0.53,2.82-1.6,3.51
			C1654.48,1449.57,1652.67,1449.92,1650.1,1449.92z M1653.3,1390.36c3.71-0.26,6.4-1.48,8.06-3.66c1.66-2.19,2.5-5.64,2.5-10.38
			v-14.43c0-4.73-0.83-8.19-2.5-10.38c-1.67-2.19-4.35-3.41-8.06-3.67v-9.49c0.76-0.05,1.57-0.09,2.41-0.12
			c0.85-0.03,2.09-0.04,3.72-0.04c14.62,0,25.41,2.33,32.37,6.98c6.96,4.66,10.43,11.87,10.43,21.64c0,7.87-2.4,14.04-7.2,18.52
			c-4.8,4.47-12.09,7.36-21.85,8.64c9.88,0.88,17.24,3.09,22.1,6.63c4.86,3.55,7.28,8.51,7.28,14.89v14.2
			c0,1.03,0.13,1.79,0.41,2.28c0.27,0.49,0.68,0.73,1.23,0.73c0.54,0,1.46-0.75,2.74-2.24c1.28-1.49,2.6-2.24,3.97-2.24
			c1.36,0,2.6,0.51,3.72,1.54c1.12,1.03,1.68,2.21,1.68,3.55c0,4.17-2.55,8.15-7.65,11.96c-5.1,3.81-11.28,5.71-18.54,5.71
			c-8.73,0-15.18-2.22-19.36-6.67c-4.17-4.45-6.26-11.33-6.26-20.64v-9.64c0-4.47-0.86-7.8-2.58-9.99c-1.72-2.18-4.6-3.59-8.63-4.2
			V1390.36z"/>
		<path class="st2" d="M1773.26,1452.16v-10.65c5.02-0.31,8.74-1.39,11.17-3.24c2.43-1.85,3.64-4.55,3.64-8.1
			c0-5.91-6.98-11.85-20.95-17.82c-0.49-0.21-0.87-0.36-1.15-0.46c-13.75-5.75-23.07-11.43-27.95-17.03
			c-4.88-5.6-7.32-12.56-7.32-20.89c0-11.05,3.67-20.08,11.01-27.09c7.34-7.01,16.84-10.52,28.52-10.52h1.39v9.72
			c-3.33,0.62-6,2.02-8.02,4.21c-2.02,2.19-3.03,4.74-3.03,7.68c0,5.61,7.28,11.14,21.85,16.59c1.04,0.41,1.85,0.72,2.46,0.93
			c11.95,4.58,20.51,9.9,25.7,15.97c5.18,6.07,7.77,13.71,7.77,22.91c0,11.32-4.11,20.44-12.32,27.39
			C1797.83,1448.68,1786.9,1452.16,1773.26,1452.16z M1768.27,1441.74v10.18c-4.69-0.05-9.59-0.82-14.69-2.31
			c-5.1-1.49-7.98-2.24-8.63-2.24c-1.42,0-2.73,0.77-3.93,2.31c-1.2,1.54-2.62,2.31-4.26,2.31c-1.75,0-3.11-0.58-4.09-1.74
			c-0.98-1.16-1.47-2.79-1.47-4.9v-29.08c0-3.14,0.39-5.3,1.19-6.48c0.79-1.18,2.2-1.77,4.21-1.77c2.73,0,4.75,2.42,6.06,7.25
			c0.66,2.37,1.25,4.22,1.8,5.55c2.13,5.3,5.29,9.79,9.49,13.46C1758.15,1437.97,1762.92,1440.46,1768.27,1441.74z M1776.62,1345.77
			v-9.41c5.02,0.05,10,0.85,14.94,2.39c4.94,1.54,7.46,2.31,7.57,2.31c1.25,0,2.55-0.78,3.89-2.35c1.34-1.57,2.82-2.35,4.46-2.35
			c1.8,0,3.07,0.43,3.81,1.29s1.1,2.41,1.1,4.65v26.08c0,2.88-0.38,4.83-1.15,5.86c-0.76,1.03-2.07,1.54-3.93,1.54
			c-2.67,0-4.69-2.21-6.06-6.63c-0.6-2.06-1.15-3.68-1.64-4.86c-2.13-4.99-5.17-9.08-9.13-12.27
			C1786.53,1348.83,1781.91,1346.75,1776.62,1345.77z"/>
	</g>
</g>
<g id="Layer_3">
</g>
<g id="Layer_2">
</g>
</svg>
